<svg width="1487" height="615" viewBox="0 0 1487 615" fill="none" xmlns="http://www.w3.org/2000/svg">
<path fill-rule="evenodd" clip-rule="evenodd" d="M0 44H62C124 44 248 44 372 37C496 30 620 15 744 7C867 0 991 0 1115 0C1239 0 1363 0 1425 0H1487V89H1425C1363 89 1239 89 1115 89C991 89 867 89 744 89C620 89 496 89 372 89C248 89 124 89 62 89H0V44Z" fill="#EFEFEF"/>
<path fill-rule="evenodd" clip-rule="evenodd" d="M0 566.294L62 569.959C124 573.623 248 581.476 372 593.516C496 605.032 620 620.737 744 612.885C867 605.032 991 573.623 1115 562.107C1239 550.59 1363 558.442 1425 562.107L1487 566.294V426H1425C1363 426 1239 426 1115 426C991 426 867 426 744 426C620 426 496 426 372 426C248 426 124 426 62 426H0V566.294Z" fill="#EFEFEF"/>
<rect y="85" width="1487" height="341" fill="#EFEFEF"/>
</svg>
