<svg width="76" height="76" viewBox="0 0 76 76" fill="none" xmlns="http://www.w3.org/2000/svg">
<path fillRule="evenodd" clipRule="evenodd" d="M21.9672 18.5104C22.1916 18.1985 22.4408 17.8166 22.7585 17.3018C22.8746 17.1136 23.1913 16.5911 23.4271 16.2022L23.4271 16.2021L23.428 16.2007C23.5533 15.994 23.6556 15.8252 23.6924 15.765C26.3175 11.4709 28.2258 9.5 31.6667 9.5H44.3334C47.7743 9.5 49.6825 11.4709 52.3076 15.765C52.3446 15.8254 52.4472 15.9947 52.5729 16.2021C52.8086 16.591 53.1254 17.1136 53.2415 17.3018C53.5593 17.8166 53.8084 18.1985 54.0328 18.5104C54.1807 18.716 54.31 18.8795 54.4154 19H63.3334C68.5801 19 72.8334 23.2533 72.8334 28.5V57C72.8334 62.2467 68.5801 66.5 63.3334 66.5H12.6667C7.41998 66.5 3.16669 62.2467 3.16669 57V28.5C3.16669 23.2533 7.41998 19 12.6667 19H21.5846C21.6901 18.8795 21.8193 18.716 21.9672 18.5104ZM12.6667 25.3333C10.9178 25.3333 9.50002 26.7511 9.50002 28.5V57C9.50002 58.7489 10.9178 60.1667 12.6667 60.1667H63.3334C65.0823 60.1667 66.5 58.7489 66.5 57V28.5C66.5 26.7511 65.0823 25.3333 63.3334 25.3333H53.8334C51.7296 25.3333 50.3109 24.182 48.8914 22.2086C48.5648 21.7546 48.2413 21.2588 47.8519 20.628C47.7185 20.4118 47.372 19.84 47.1343 19.4479L47.1338 19.447C47.0215 19.2617 46.9336 19.1166 46.9041 19.0684C45.4718 16.7255 44.608 15.8333 44.3334 15.8333H31.6667C31.392 15.8333 30.5283 16.7255 29.096 19.0684C29.0666 19.1164 28.9794 19.2603 28.8678 19.4444L28.8657 19.4478L28.8654 19.4483C28.6278 19.8405 28.2815 20.4118 28.1481 20.628C27.7588 21.2588 27.4352 21.7546 27.1086 22.2086C25.6892 24.182 24.2704 25.3333 22.1667 25.3333H12.6667ZM63.3334 31.6667C63.3334 33.4156 61.9156 34.8333 60.1667 34.8333C58.4178 34.8333 57 33.4156 57 31.6667C57 29.9178 58.4178 28.5 60.1667 28.5C61.9156 28.5 63.3334 29.9178 63.3334 31.6667ZM22.1667 41.1667C22.1667 49.9112 29.2555 57 38 57C46.7445 57 53.8334 49.9112 53.8334 41.1667C53.8334 32.4222 46.7445 25.3333 38 25.3333C29.2555 25.3333 22.1667 32.4222 22.1667 41.1667ZM47.5 41.1667C47.5 46.4134 43.2467 50.6667 38 50.6667C32.7533 50.6667 28.5 46.4134 28.5 41.1667C28.5 35.92 32.7533 31.6667 38 31.6667C43.2467 31.6667 47.5 35.92 47.5 41.1667Z" fill="black"/>
</svg>
