<svg width="76" height="76" viewBox="0 0 76 76" fill="none" xmlns="http://www.w3.org/2000/svg">
<path fillRule="evenodd" clipRule="evenodd" d="M58.8604 45.5152L63.6934 50.3482C65.0569 47.5162 65.9661 44.4242 66.3262 41.1666H72.8334V34.8333H66.3262C64.8659 21.6232 54.3769 11.1342 41.1668 9.6739V3.16663H34.8334V9.6739C31.5759 10.034 28.4838 10.9431 25.6518 12.3067L30.4849 17.1397C32.8316 16.2941 35.362 15.8333 38.0001 15.8333C50.2424 15.8333 60.1668 25.7576 60.1668 38C60.1668 40.638 59.7059 43.1685 58.8604 45.5152ZM41.1667 66.3261C46.6636 65.7184 51.6893 63.5475 55.7894 60.2677L67.4275 71.9058L71.9059 67.4275L8.57253 4.09415L4.09418 8.5725L15.7323 20.2107C12.4526 24.3107 10.2816 29.3365 9.67396 34.8333H3.16669V41.1667H9.67396C11.1343 54.3768 21.6232 64.8657 34.8334 66.3261V72.8333H41.1667V66.3261ZM15.8334 38C15.8334 33.021 17.475 28.4253 20.2465 24.7248L27.0871 31.5655C25.9728 33.4513 25.3334 35.651 25.3334 38C25.3334 44.9956 31.0044 50.6667 38 50.6667C40.3491 50.6667 42.5488 50.0273 44.4346 48.9129L51.2752 55.7536C47.5747 58.5251 42.9791 60.1667 38 60.1667C25.7577 60.1667 15.8334 50.2423 15.8334 38ZM31.8812 36.3596C31.7413 36.8828 31.6667 37.4327 31.6667 38C31.6667 41.4978 34.5022 44.3334 38 44.3334C38.5674 44.3334 39.1173 44.2588 39.6405 44.1189L31.8812 36.3596Z" fill="black"/>
</svg>
